<svg id="visual" viewBox="0 0 900 600" width="900" height="600" xmlns="http://www.w3.org/2000/svg" xmlns:xlink="http://www.w3.org/1999/xlink" version="1.1"><rect x="0" y="0" width="900" height="600" fill="#FFFFFF"></rect><path d="M0 521L21.5 520.3C43 519.7 86 518.3 128.8 495.8C171.7 473.3 214.3 429.7 257.2 421.7C300 413.7 343 441.3 385.8 460.8C428.7 480.3 471.3 491.7 514.2 490.3C557 489 600 475 642.8 474.3C685.7 473.7 728.3 486.3 771.2 488.5C814 490.7 857 482.3 878.5 478.2L900 474L900 601L878.5 601C857 601 814 601 771.2 601C728.3 601 685.7 601 642.8 601C600 601 557 601 514.2 601C471.3 601 428.7 601 385.8 601C343 601 300 601 257.2 601C214.3 601 171.7 601 128.8 601C86 601 43 601 21.5 601L0 601Z" fill="#f78768" stroke-linecap="round" stroke-linejoin="miter"></path></svg>